# xmcd CD database file
#
# Track frame offsets:
#	150
#	23762
#	41762
#
# Disc length: 821 seconds
#
# Revision: 0
# Processed by: cddbd v1.5.2PL0 Copyright (c) Steve Scherf et al.
# Submitted via: CD2WAV32(JP) R3.22
#
DISCID=1c033303
DTITLE=miwa - 夜空。feat.ハジ→
DYEAR=2015
DGENRE=Pop
TTITLE0=夜空。feat.ハジ→
TTITLE1=ストレスフリー
TTITLE2=いつか君が
EXTD=
EXTT0=
EXTT1=
EXTT2=
PLAYORDER=
